<svg viewBox="0 0 800 600" xmlns="http://www.w3.org/2000/svg">
  <defs>
    <linearGradient id="vlsiGradient" x1="0%" y1="0%" x2="100%" y2="100%">
      <stop offset="0%" style="stop-color:#8b5cf6;stop-opacity:1" />
      <stop offset="100%" style="stop-color:#ec4899;stop-opacity:1" />
    </linearGradient>
    <pattern id="circuitPattern" width="40" height="40" patternUnits="userSpaceOnUse">
      <circle cx="20" cy="20" r="2" fill="rgba(255,255,255,0.1)"/>
      <path d="M 0 20 L 40 20 M 20 0 L 20 40" stroke="rgba(255,255,255,0.05)" stroke-width="1"/>
    </pattern>
  </defs>
  
  <!-- Background -->
  <rect width="800" height="600" fill="url(#vlsiGradient)"/>
  <rect width="800" height="600" fill="url(#circuitPattern)"/>
  
  <!-- Border -->}
  <rect x="10" y="10" width="780" height="580" fill="none" stroke="rgba(255,255,255,0.4)" stroke-width="3" rx="12"/>
  <rect x="30" y="30" width="740" height="540" fill="none" stroke="rgba(255,255,255,0.2)" stroke-width="1" rx="6"/>
  
  <!-- Header -->
  <text x="400" y="70" text-anchor="middle" fill="white" font-family="sans-serif" font-size="28" font-weight="bold">
    CERTIFICATE OF COMPLETION
  </text>
  
  <!-- Institution -->
  <text x="400" y="100" text-anchor="middle" fill="rgba(255,255,255,0.9)" font-family="sans-serif" font-size="16">
    Maven Silicon
  </text>
  
  <!-- Decorative line -->
  <line x1="100" y1="125" x2="700" y2="125" stroke="rgba(255,255,255,0.6)" stroke-width="2"/>
  
  <!-- Circuit symbol -->
  <rect x="375" y="150" width="50" height="50" rx="5" fill="rgba(255,255,255,0.2)" stroke="rgba(255,255,255,0.4)" stroke-width="2"/>
  <text x="400" y="185" text-anchor="middle" fill="white" font-family="monospace" font-size="16" font-weight="bold">
    VLSI
  </text>
  
  <!-- Certificate Title -->}
  <text x="400" y="240" text-anchor="middle" fill="white" font-family="sans-serif" font-size="20" font-weight="bold">
    VLSI System On Chip Design – Overview
  </text>
  
  <!-- Recipient section */
  <text x="400" y="290" text-anchor="middle" fill="white" font-family="sans-serif" font-size="15">
    This is to certify that
  </text>
  <text x="400" y="325" text-anchor="middle" fill="white" font-family="sans-serif" font-size="24" font-weight="bold">
    Farhan Arefin Khan
  </text>
  <text x="400" y="360" text-anchor="middle" fill="white" font-family="sans-serif" font-size="15">
    has successfully completed the professional course in
  </text>
  <text x="400" y="385" text-anchor="middle" fill="white" font-family="sans-serif" font-size="15">
    Very Large Scale Integration and System on Chip Design
  </text>
  
  <!-- Circuit design elements -->
  <g stroke="rgba(255,255,255,0.3)" stroke-width="1" fill="none">
    <rect x="80" y="420" width="20" height="15" rx="2"/>
    <rect x="120" y="420" width="20" height="15" rx="2"/>
    <line x1="100" y1="427" x2="120" y2="427"/>
    <circle cx="160" cy="427" r="8"/>
    <line x1="140" y1="427" x2="152" y2="427"/>
    <line x1="168" y1="427" x2="190" y2="427"/>
  </g>
  
  <g stroke="rgba(255,255,255,0.3)" stroke-width="1" fill="none">
    <rect x="680" y="420" width="20" height="15" rx="2"/>
    <rect x="640" y="420" width="20" height="15" rx="2"/>
    <line x1="660" y1="427" x2="680" y2="427"/>
    <circle cx="620" cy="427" r="8"/>
    <line x1="628" y1="427" x2="640" y2="427"/>
    <line x1="600" y1="427" x2="612" y2="427"/>
  </g>
  
  <!-- Footer section */
  <text x="200" y="480" text-anchor="middle" fill="white" font-family="sans-serif" font-size="13">
    Completion Year
  </text>
  <text x="200" y="500" text-anchor="middle" fill="white" font-family="sans-serif" font-size="16" font-weight="bold">
    2025
  </text>
  
  <text x="600" y="480" text-anchor="middle" fill="white" font-family="sans-serif" font-size="13">
    Credential ID
  </text>
  <text x="600" y="500" text-anchor="middle" fill="white" font-family="sans-serif" font-size="13" font-weight="bold">
    MVS-VLSI-2025-001
  </text>
  
  <!-- Signature area -->
  <line x1="320" y1="530" x2="480" y2="530" stroke="rgba(255,255,255,0.4)" stroke-width="1"/>
  <text x="400" y="550" text-anchor="middle" fill="white" font-family="sans-serif" font-size="11">
    Authorized Signature
  </text>
  
  <!-- Tech decorative elements -->
  <rect x="50" y="50" width="10" height="10" fill="rgba(255,255,255,0.2)" rx="1"/>
  <rect x="740" y="50" width="10" height="10" fill="rgba(255,255,255,0.2)" rx="1"/>
  <rect x="50" y="540" width="10" height="10" fill="rgba(255,255,255,0.2)" rx="1"/>
  <rect x="740" y="540" width="10" height="10" fill="rgba(255,255,255,0.2)" rx="1"/>
</svg>
